<svg xmlns="http://www.w3.org/2000/svg" viewBox="0 0 100 100">
  <path d="M52.266 70.7a27.81 27.81 0 004.022 3.702A23.844 23.844 0 0150 83.394a23.89 23.89 0 01-6.295-8.985 27.8 27.8 0 004.029-3.708c.341.294.676.595 1.033.874l1.233.964 1.232-.964c.358-.28.693-.58 1.034-.875zm10.06 2.783a23.856 23.856 0 003.762-10.449 28.043 28.043 0 01-5.96-3.431 27.747 27.747 0 01-5.028 8.284 23.912 23.912 0 007.226 5.596zm-9.764-22.642c-.536.327-1.079.642-1.638.933l-.924.482-.925-.482a27.256 27.256 0 01-1.639-.934 27.818 27.818 0 01-4.316 5.891 23.854 23.854 0 006.879 10.664 23.83 23.83 0 006.883-10.66 27.82 27.82 0 01-4.32-5.894zM33.913 63.033a23.875 23.875 0 003.761 10.45 23.913 23.913 0 007.224-5.598 27.788 27.788 0 01-5.024-8.284 27.944 27.944 0 01-5.961 3.432zm10.264-14.527a28.15 28.15 0 01-4.837-5.147 27.603 27.603 0 01-10.283 4.107 23.836 23.836 0 002.834 12.086 23.823 23.823 0 0012.286-11.046zm11.644.001a23.82 23.82 0 0012.287 11.044 23.837 23.837 0 002.839-12.085 27.593 27.593 0 01-10.287-4.108 28.074 28.074 0 01-4.839 5.149zM52 22.032V18a2 2 0 00-4 0v4.032c-11.611.964-20.905 10.216-21.91 21.815a23.735 23.735 0 0012.545-4.896l1.76-1.357 1.165 1.893A24.097 24.097 0 0050 47.718a24.088 24.088 0 008.44-8.231l1.164-1.893 1.76 1.357c3.676 2.833 7.977 4.506 12.546 4.896C72.906 32.249 63.611 22.997 52 22.032z"/>
</svg>
